<?xml version="1.0" encoding="iso-8859-1"?>
<!-- Generator: Adobe Illustrator 19.0.0, SVG Export Plug-In . SVG Version: 6.00 Build 0)  -->
<svg version="1.1" id="Layer_1" xmlns="http://www.w3.org/2000/svg" xmlns:xlink="http://www.w3.org/1999/xlink" x="0px" y="0px"
	 viewBox="0 0 512 512" style="enable-background:new 0 0 512 512;" xml:space="preserve">
<g>
	<g>
		<path d="M428.018,234.699c2.088-9.158,3.14-18.553,3.14-28.044c0-69.342-56.412-125.754-125.754-125.754
			c-56.057,0-105.517,37.724-120.855,90.895c-4.579-0.711-9.219-1.07-13.882-1.07c-46.636,0-85.088,35.728-89.417,81.25
			C35.728,256.304,0,294.697,0,341.333c0,49.532,40.294,89.766,89.825,89.766h323.917c54.18,0,98.259-44.559,98.259-98.749
			C512,282.714,475.926,241.817,428.018,234.699z M413.693,413.134H89.825c-39.623,0-71.86-32.178-71.86-71.802
			c0-39.622,32.237-71.83,71.86-71.83c4.961,0,8.982-4.007,8.982-8.967c0-39.623,32.237-71.853,71.86-71.853
			c6.18,0,12.312,0.79,18.228,2.333c2.386,0.627,4.908,0.242,6.991-1.043c2.088-1.289,3.557-3.381,4.07-5.78
			c10.474-49.443,54.825-85.329,105.447-85.329c59.434,0,107.789,48.356,107.789,107.791c0,11.355-1.754,22.535-5.215,33.224
			c-0.869,2.68-0.43,5.61,1.184,7.917c1.614,2.307,4.219,3.724,7.031,3.829c43.649,1.588,77.842,37.016,77.842,80.726
			C494.035,376.689,457.974,413.134,413.693,413.134z"/>
	</g>
</g>
<g>
</g>
<g>
</g>
<g>
</g>
<g>
</g>
<g>
</g>
<g>
</g>
<g>
</g>
<g>
</g>
<g>
</g>
<g>
</g>
<g>
</g>
<g>
</g>
<g>
</g>
<g>
</g>
<g>
</g>
</svg>
